<?xml version="1.0" encoding="UTF-8"?>
<svg version="1.1" xmlns="http://www.w3.org/2000/svg" width="154" height="157">
<path d="M0 0 C50.82 0 101.64 0 154 0 C154 51.81 154 103.62 154 157 C103.18 157 52.36 157 0 157 C0 105.19 0 53.38 0 0 Z " fill="#F2F2F4" transform="translate(0,0)"/>
<path d="M0 0 C0.87720703 -0.00686325 1.75441406 -0.0137265 2.65820312 -0.02079773 C5.54647184 -0.03903966 8.43419602 -0.03523194 11.32250977 -0.02954102 C13.33740922 -0.03410407 15.35230712 -0.03941001 17.36720276 -0.04542542 C21.58617483 -0.05435141 25.80495755 -0.05193917 30.02392578 -0.04199219 C35.42206037 -0.03050333 40.81954072 -0.05071554 46.21758938 -0.07990932 C50.37754954 -0.09828312 54.53735326 -0.09797649 58.69734383 -0.0922718 C60.68719462 -0.09211873 62.67705612 -0.09815123 64.66686821 -0.11056328 C67.45280504 -0.12549362 70.23753754 -0.11478125 73.0234375 -0.09765625 C73.83976151 -0.10732422 74.65608551 -0.11699219 75.49714661 -0.12695312 C82.00011313 -0.04353576 86.27423788 1.61092102 90.99064636 6.31210327 C92.37389542 8.9772055 92.45069258 10.87591808 92.44873047 13.87524414 C92.45807365 15.51681992 92.45807365 15.51681992 92.46760559 17.19155884 C92.45839584 18.36769745 92.4491861 19.54383606 92.43969727 20.75561523 C92.44044502 22.57118423 92.44044502 22.57118423 92.44120789 24.4234314 C92.43886807 26.98046512 92.4291451 29.53750117 92.41259766 32.09448242 C92.3889657 36.02079713 92.39204262 39.94643481 92.39868164 43.87280273 C92.39310635 46.35457764 92.38599741 48.83634967 92.37719727 51.31811523 C92.37810867 52.49830231 92.37902008 53.67848938 92.37995911 54.8944397 C92.37042709 55.98251923 92.36089508 57.07059875 92.35107422 58.19165039 C92.34416313 59.63249496 92.34416313 59.63249496 92.33711243 61.10244751 C92.07641602 63.40405273 92.07641602 63.40405273 90.07641602 65.40405273 C87.07641602 65.71655273 87.07641602 65.71655273 84.07641602 65.40405273 C81.90551949 62.14770794 81.8135059 61.15761991 81.75756836 57.38183594 C81.73769867 56.36100418 81.71782898 55.34017242 81.69735718 54.28840637 C81.68580597 53.18832748 81.67425476 52.0882486 81.66235352 50.95483398 C81.64298737 49.82708054 81.62362122 48.69932709 81.60366821 47.53739929 C81.54382294 43.9305277 81.4974668 40.32362429 81.45141602 36.71655273 C81.41324083 34.27317933 81.37418938 31.82981946 81.33422852 29.38647461 C81.23811732 23.3924539 81.15308423 17.39835195 81.07641602 11.40405273 C69.76758367 11.35778375 58.4587737 11.32221127 47.1498661 11.30042839 C41.89911184 11.28997556 36.64842216 11.2757891 31.39770508 11.25317383 C26.3337986 11.23149879 21.26995437 11.21949541 16.2060051 11.21429825 C14.27063389 11.21059287 12.33526623 11.20335755 10.39992142 11.19259262 C7.69647004 11.17814859 4.99327845 11.1760718 2.28979492 11.17700195 C1.08030937 11.16621613 1.08030937 11.16621613 -0.15361023 11.1552124 C-4.50493752 11.00060661 -4.50493752 11.00060661 -7.92358398 13.40405273 C-8.22118721 15.42696972 -8.22118721 15.42696972 -8.16409302 17.78262329 C-8.16684235 18.70251541 -8.16959167 19.62240753 -8.17242432 20.57017517 C-8.16523376 21.58221512 -8.15804321 22.59425507 -8.15063477 23.63696289 C-8.15092682 24.70039413 -8.15121887 25.76382538 -8.15151978 26.85948181 C-8.15012233 30.38744157 -8.13454155 33.9151922 -8.11889648 37.44311523 C-8.11516783 39.88406255 -8.11232016 42.32501135 -8.11032104 44.76596069 C-8.10267297 51.20056263 -8.08301439 57.63507474 -8.06091309 64.06964111 C-8.04047992 70.63162012 -8.03132475 77.1936136 -8.02124023 83.75561523 C-7.99976962 96.63846613 -7.96600225 109.52125466 -7.92358398 122.40405273 C-6.84030319 122.40991898 -5.7570224 122.41578522 -4.64091492 122.42182922 C5.55658575 122.47898536 15.75387171 122.55170949 25.95115376 122.63976765 C31.19398278 122.684539 36.43673287 122.72378012 41.6796875 122.75048828 C46.73727139 122.77645386 51.79455263 122.81680812 56.85194969 122.867239 C58.78365509 122.88395347 60.71541289 122.89543914 62.64718056 122.90166664 C65.34828213 122.91125807 68.04860139 122.9392571 70.74951172 122.97167969 C71.95360435 122.96952705 71.95360435 122.96952705 73.18202209 122.96733093 C78.56339821 123.05898615 78.56339821 123.05898615 81.10856628 124.7709198 C82.07641602 126.40405273 82.07641602 126.40405273 81.88891602 128.96655273 C81.07641602 131.40405273 81.07641602 131.40405273 79.07641602 133.40405273 C76.24711163 133.61851008 73.51451863 133.70816771 70.68286133 133.71044922 C69.38014786 133.72293449 69.38014786 133.72293449 68.05111694 133.735672 C65.16887983 133.75984283 62.28686886 133.76855381 59.40454102 133.77514648 C57.4039503 133.78410922 55.40336029 133.79323099 53.402771 133.80250549 C49.20282358 133.81901854 45.00295609 133.8266995 40.80297852 133.82958984 C35.42473337 133.83496829 30.04724124 133.87261632 24.66920853 133.91833401 C20.53417229 133.948103 16.39931713 133.95531341 12.26418304 133.95631599 C10.28185334 133.96052056 8.2995232 133.9729643 6.31729889 133.99383354 C3.54015656 134.02073736 0.76475563 134.01592503 -2.01245117 134.00341797 C-3.23773026 134.0256694 -3.23773026 134.0256694 -4.48776245 134.04837036 C-8.51619789 133.99679605 -11.13740914 133.65113374 -14.35552979 131.11659241 C-17.92259947 127.34883001 -19.17004885 124.81972714 -19.19100952 119.64225769 C-19.19953949 118.68766159 -19.20806946 117.73306549 -19.21685791 116.74954224 C-19.21595154 115.70893646 -19.21504517 114.66833069 -19.21411133 113.59619141 C-19.22082855 112.49494431 -19.22754578 111.3936972 -19.23446655 110.25907898 C-19.25348644 106.61334742 -19.25737289 102.96779959 -19.25952148 99.32202148 C-19.26594697 96.78859888 -19.27267514 94.25517702 -19.2796936 91.72175598 C-19.29167662 86.40807068 -19.29545902 81.09445391 -19.29418945 75.78076172 C-19.29298889 69.64927644 -19.31407475 63.51814366 -19.34567678 57.38674754 C-19.37503925 51.47821791 -19.38216394 45.56979534 -19.38097 39.66118813 C-19.3833294 37.15218988 -19.3921719 34.643189 -19.40763474 32.13423729 C-19.42724939 28.62256086 -19.42147332 25.11178893 -19.40942383 21.60009766 C-19.42066284 20.56556458 -19.43190186 19.53103149 -19.44348145 18.46514893 C-19.38942696 12.259687 -18.80516426 8.35031538 -14.92358398 3.40405273 C-10.12447872 -0.00461458 -5.66806904 -0.03117945 0 0 Z " fill="#080808" transform="translate(31.923583984375,9.595947265625)"/>
<path d="M0 0 C5.92566502 3.24745107 8.80182959 8.16615919 11.75 14.0625 C11.84745179 15.97714106 11.87976894 17.89538642 11.875 19.8125 C11.87886719 21.35164063 11.87886719 21.35164063 11.8828125 22.921875 C11.75 26.0625 11.75 26.0625 10.97436523 28.96191406 C10.41396903 32.13429935 10.41396903 32.13429935 12.47241211 34.484375 C13.31553955 35.25265625 14.15866699 36.0209375 15.02734375 36.8125 C16.38569336 38.09640625 16.38569336 38.09640625 17.77148438 39.40625 C18.73376953 40.2828125 19.69605469 41.159375 20.6875 42.0625 C22.58501834 43.79795726 24.46980837 45.54746305 26.33984375 47.3125 C27.18409912 48.08078125 28.02835449 48.8490625 28.89819336 49.640625 C31.21652398 52.67264078 31.21295943 54.33039439 30.75 58.0625 C29.5625 59.9375 29.5625 59.9375 27.75 61.0625 C25.4230957 61.40844727 25.4230957 61.40844727 22.75 61.0625 C20.47338867 59.21069336 20.47338867 59.21069336 18.16796875 56.65234375 C17.31783203 55.74548828 16.46769531 54.83863281 15.59179688 53.90429688 C13.82563736 51.97178827 12.06776023 50.03167675 10.31835938 48.08398438 C6.12795676 43.22402061 6.12795676 43.22402061 0.52392578 40.65136719 C-1.85239346 40.8982221 -1.85239346 40.8982221 -5.25 42.0625 C-11.96712357 42.69448743 -16.95152032 42.61185331 -22.53515625 38.546875 C-27.73047886 34.04978481 -31.44742749 28.86911557 -32.60546875 21.93359375 C-33.01149596 15.62371147 -30.97338193 11.08564518 -27.25 6.0625 C-19.63954492 -2.13965266 -10.24595091 -4.45945755 0 0 Z " fill="#090909" transform="translate(115.25,81.9375)"/>
<path d="M0 0 C20.46 0 40.92 0 62 0 C62 3.3 62 6.6 62 10 C41.54 10 21.08 10 0 10 C0 6.7 0 3.4 0 0 Z " fill="#0B0B0B" transform="translate(32,68)"/>
<path d="M0 0 C20.46 0 40.92 0 62 0 C62 3.3 62 6.6 62 10 C41.54 10 21.08 10 0 10 C0 6.7 0 3.4 0 0 Z " fill="#0B0B0B" transform="translate(32,40)"/>
<path d="M0 0 C3.17852316 1.64448689 5.37801764 3.75603527 7 7 C7.51158525 11.06344859 7.94019368 15.21399502 5.98828125 18.921875 C3.43656234 22.01765409 0.76578995 24.74261367 -3.3046875 25.3359375 C-7.57276853 25.40080195 -10.24596584 25.43985326 -14 23.25 C-17.89633357 18.86662474 -18.48802294 15.23445706 -18.39453125 9.48046875 C-17.75198843 5.44071935 -15.9613537 3.74982843 -13 1 C-9.03716439 -0.98141781 -4.30789762 -0.55820645 0 0 Z " fill="#EDEDEF" transform="translate(111,90)"/>
</svg>
